<svg width="24" height="24" viewBox="0 0 24 24" fill="none"
    xmlns="http://www.w3.org/2000/svg">
    <path fill-rule="evenodd" clip-rule="evenodd" d="M2.76188 3.58387C2.76422 3.58387 2.70569 3.64475 2.63193 3.71733C2.34862 3.99245 1.7621 4.56492 1.75619 5.76255C1.74688 7.43782 2.84851 10.5484 8.15296 15.8517C13.4328 21.1292 16.5387 22.2437 18.2175 22.2437H18.2421C19.4397 22.2378 20.011 21.6501 20.2873 21.368C20.3716 21.2814 20.4395 21.2181 20.4875 21.1783C21.6535 20.0053 22.2506 19.132 22.2447 18.5724C22.2365 18.0011 21.5259 17.3256 20.5437 16.3913C20.2311 16.094 19.8916 15.7709 19.5334 15.4126C18.605 14.4866 18.1449 14.6447 17.1334 15.0006C15.7344 15.4911 13.8145 16.1584 10.8315 13.1743C7.8439 10.189 8.51237 8.27136 9.00172 6.87237C9.35527 5.86089 9.51683 5.39963 8.58729 4.47009C8.2232 4.10717 7.89658 3.76299 7.59571 3.4469C6.66734 2.47053 5.9977 1.7646 5.42991 1.75641H5.42054C4.85978 1.75641 3.98878 2.35581 2.75603 3.58855C2.75954 3.58504 2.76071 3.58387 2.76188 3.58387ZM18.2187 23.9997C15.3013 23.9997 11.4977 21.6771 6.91202 17.0938C2.30882 12.4917 -0.0173643 8.67642 9.75809e-05 5.75318C0.0107326 3.82152 1.02339 2.83228 1.40387 2.46117C1.42377 2.43658 1.49167 2.36985 1.51508 2.34644C3.19387 0.666483 4.32594 -0.0125236 5.45215 0.000174595C6.75983 0.0179146 7.69054 0.996621 8.86826 2.23639C9.15977 2.54312 9.47586 2.87677 9.82824 3.22798C11.5375 4.9372 11.0504 6.33151 10.6594 7.4507C10.2333 8.67174 9.86453 9.72537 12.0725 11.9333C14.2828 14.1413 15.3364 13.7725 16.5527 13.3428C17.6731 12.9518 19.0639 12.4625 20.7755 14.1717C21.122 14.5182 21.451 14.8308 21.7542 15.12C22.9998 16.3035 23.9832 17.2389 23.9998 18.5501C24.0136 19.6681 23.3346 20.8072 21.6582 22.4848L20.916 21.9814L21.5434 22.5949C21.1723 22.9754 20.1843 23.9892 18.2514 23.9997H18.2187Z" fill="#444444"/>
</svg>
