<svg width="24" height="24" viewBox="0 0 24 24" fill="none"
    xmlns="http://www.w3.org/2000/svg">
    <path d="M17.6028 0C21.684 0 23.988 2.3148 24 6.396V17.604C24 21.684 21.684 24 17.6028 24H6.396C2.3148 24 0 21.684 0 17.604V6.396C0 2.3148 2.3148 0 6.396 0H17.6028ZM12.6 4.956C12.2628 4.752 11.8548 4.752 11.532 4.956C11.2068 5.1588 11.028 5.532 11.0628 5.904V18.132C11.124 18.648 11.5548 19.032 12.0588 19.032C12.576 19.032 13.0068 18.648 13.0548 18.132V5.904C13.1028 5.532 12.924 5.1588 12.6 4.956ZM6.996 8.892C6.672 8.688 6.2628 8.688 5.94 8.892C5.6148 9.096 5.436 9.4668 5.472 9.84V18.132C5.5188 18.648 5.9508 19.032 6.4668 19.032C6.984 19.032 7.4148 18.648 7.4628 18.132V9.84C7.5 9.4668 7.3188 9.096 6.996 8.892ZM18.1068 13.248C17.784 13.044 17.376 13.044 17.04 13.248C16.7148 13.452 16.536 13.8108 16.584 14.196V18.132C16.632 18.648 17.0628 19.032 17.58 19.032C18.084 19.032 18.5148 18.648 18.576 18.132V14.196C18.6108 13.8108 18.432 13.452 18.1068 13.248Z" fill="#444444"/>
</svg>
