<svg width="20" height="20" viewBox="0 0 20 20" fill="none"
    xmlns="http://www.w3.org/2000/svg">
    <path d="M4.48979 14.1L8.54693 15.815L4.48979 14.1ZM18.7755 11C18.7756 11.0444 18.7641 11.0876 18.7429 11.1236C18.7216 11.1595 18.6916 11.1863 18.6571 11.2L16.551 12.095C16.5178 12.0654 16.4804 12.0434 16.4408 12.03L9.50204 9.53C9.39703 9.49287 9.28429 9.50836 9.18861 9.57306C9.09292 9.63776 9.02214 9.74637 8.99183 9.875C8.96152 10.0036 8.97416 10.1417 9.02698 10.259C9.0798 10.3762 9.16846 10.4629 9.27346 10.5L15.2571 12.655L14.5592 12.955L9.97959 14.88C9.60283 15.04 9.19308 15.04 8.81632 14.88L4.21632 12.93L0.134694 11.195C0.0981734 11.1844 0.0653861 11.1598 0.041144 11.1247C0.0169019 11.0896 0.00248172 11.0459 6.90268e-09 11C-1.00153e-05 10.9557 0.0108938 10.9124 0.0312848 10.8759C0.0516758 10.8393 0.0806043 10.8111 0.114286 10.795L8.71428 6.665C8.92825 6.55839 9.15677 6.5024 9.38775 6.5C9.61537 6.50162 9.84084 6.55414 10.0531 6.655L13.3184 8.22L13.3592 8.31C13.6988 9.0624 14.1516 9.72916 14.6939 10.275C15.2626 10.8402 15.9195 11.257 16.6245 11.5C16.6963 11.5267 16.773 11.5267 16.8449 11.5C16.9666 11.4592 17.0864 11.4108 17.2041 11.355L17.302 11.315C17.4041 11.27 17.502 11.22 17.6 11.165C17.6979 11.11 17.8326 11.03 17.9469 10.955C17.9918 10.955 18.0367 10.895 18.0816 10.865C18.1265 10.835 18.2653 10.73 18.3551 10.66L18.6612 10.805C18.6936 10.8205 18.7217 10.8471 18.742 10.8817C18.7623 10.9163 18.7739 10.9574 18.7755 11Z" fill="#444444"/>
    <path d="M14.2857 14.105V18.105L9.3877 20L4.48975 18.13V14.13L8.54689 15.845C9.09908 16.0825 9.70082 16.0825 10.253 15.845L14.2857 14.105ZM17.551 11.565V17.5C17.551 17.6326 17.508 17.7598 17.4314 17.8536C17.3549 17.9473 17.2511 18 17.1428 18C17.0345 18 16.9307 17.9473 16.8542 17.8536C16.7776 17.7598 16.7346 17.6326 16.7346 17.5V11.915L17.551 11.565ZM16.7346 0L13.4693 1.135V5.05C13.4697 5.47249 13.5094 5.89354 13.5877 6.305C13.6167 6.47457 13.6549 6.64161 13.702 6.805C13.7722 7.06742 13.8581 7.32312 13.9591 7.57C13.9918 7.655 14.0244 7.72 14.053 7.79C14.1585 8.01568 14.2757 8.23279 14.404 8.44C14.9826 9.41246 15.7989 10.134 16.7346 10.5C17.2104 10.3219 17.6587 10.0482 18.0612 9.69C18.5718 9.24268 19.0029 8.67301 19.3285 8.01552C19.654 7.35803 19.8672 6.62641 19.955 5.865C19.9854 5.60164 20.0004 5.33597 19.9999 5.07V1.16L16.7346 0ZM18.6571 4.335L16.6163 6.835C16.5783 6.88186 16.5332 6.91906 16.4834 6.94445C16.4337 6.96983 16.3804 6.9829 16.3265 6.9829C16.2726 6.9829 16.2192 6.96983 16.1695 6.94445C16.1198 6.91906 16.0746 6.88186 16.0367 6.835L15.0163 5.585C14.9394 5.49085 14.8962 5.36315 14.8962 5.23C14.8962 5.09685 14.9394 4.96915 15.0163 4.875C15.0931 4.78085 15.1974 4.72795 15.3061 4.72795C15.4148 4.72795 15.519 4.78085 15.5959 4.875L16.3265 5.795L18.0775 3.645C18.1544 3.55085 18.2586 3.49795 18.3673 3.49795C18.476 3.49795 18.5802 3.55085 18.6571 3.645C18.7339 3.73915 18.7771 3.86685 18.7771 4C18.7771 4.13315 18.7339 4.26085 18.6571 4.355V4.335Z" fill="#444444"/>
</svg>
