<svg width="24" height="24" viewBox="0 0 24 24" fill="none"
    xmlns="http://www.w3.org/2000/svg">
    <path d="M14.6403 17.9837C13.7165 20.3133 11.4908 21.9341 8.88322 21.9511H8.87823C7.59933 21.9511 6.35299 21.5478 5.31656 20.7985C4.28013 20.0493 3.5064 18.9922 3.10547 17.7778C2.70454 16.5634 2.69683 15.2534 3.08343 14.0344C3.47004 12.8153 4.23126 11.7492 5.2588 10.9878L5.2748 10.9758L4.91985 8.78516C2.42125 10.2029 0.762513 12.8445 0.762513 15.874C0.761769 17.7016 1.37734 19.476 2.50974 20.9104C3.64213 22.3448 5.22516 23.3555 7.00296 23.779C8.78075 24.2024 10.6494 24.014 12.3069 23.2442C13.9644 22.4744 15.3138 21.1681 16.1371 19.5364L16.1581 19.4905L14.6403 17.9837Z" fill="#444444"/>
    <path d="M17.0099 15.0681C16.9377 14.9968 16.8594 14.9319 16.7759 14.8741L16.7699 14.8701C16.551 14.7202 16.28 14.6302 15.9881 14.6302H9.65807L8.8392 9.58398H15.5961C15.7266 9.58398 15.8559 9.55827 15.9765 9.50833C16.097 9.45838 16.2066 9.38518 16.2989 9.29289C16.3912 9.2006 16.4644 9.09104 16.5143 8.97046C16.5643 8.84988 16.59 8.72065 16.59 8.59014C16.59 8.45962 16.5643 8.33039 16.5143 8.20981C16.4644 8.08923 16.3912 7.97967 16.2989 7.88738C16.2066 7.7951 16.097 7.72189 15.9765 7.67195C15.8559 7.622 15.7266 7.59629 15.5961 7.59629H8.51525L8.40427 6.9244C8.37341 6.7417 8.30688 6.56686 8.20845 6.40987C8.11002 6.25288 7.98164 6.11681 7.83063 6.00944C7.67962 5.90206 7.50894 5.82548 7.32833 5.78407C7.14773 5.74266 6.96073 5.73723 6.77803 5.76808C6.59532 5.79894 6.42048 5.86548 6.26349 5.96391C6.1065 6.06233 5.97044 6.19071 5.86307 6.34172C5.64621 6.6467 5.5594 7.02534 5.62171 7.39433L5.62071 7.38633L7.06048 16.2099C7.1254 16.5495 7.30388 16.857 7.56661 17.0817C7.82934 17.3065 8.1607 17.4352 8.50625 17.4467H15.4102L20.8183 22.8559C20.9479 22.9906 21.103 23.0982 21.2746 23.1723C21.4463 23.2463 21.6309 23.2854 21.8179 23.2873C22.0048 23.2891 22.1902 23.2537 22.3633 23.183C22.5363 23.1123 22.6935 23.0078 22.8257 22.8756C22.9579 22.7434 23.0624 22.5862 23.1331 22.4131C23.2038 22.2401 23.2392 22.0547 23.2374 21.8678C23.2356 21.6808 23.1965 21.4961 23.1224 21.3245C23.0483 21.1529 22.9407 20.9977 22.806 20.8682L17.0099 15.0681ZM9.10816 2.69107C9.10816 3.40479 8.82464 4.08927 8.31996 4.59395C7.81529 5.09862 7.1308 5.38215 6.41709 5.38215C5.70337 5.38215 5.01888 5.09862 4.51421 4.59395C4.00954 4.08927 3.72601 3.40479 3.72601 2.69107C3.72601 1.97736 4.00954 1.29287 4.51421 0.788197C5.01888 0.283523 5.70337 0 6.41709 0C7.1308 0 7.81529 0.283523 8.31996 0.788197C8.82464 1.29287 9.10816 1.97736 9.10816 2.69107Z" fill="#444444"/>
</svg>
