<svg width="24" height="24" viewBox="0 0 24 24" fill="none"
    xmlns="http://www.w3.org/2000/svg">
    <path fill-rule="evenodd" clip-rule="evenodd" d="M12.0007 14.2257L12.1251 14.2257L12.4036 14.2267C14.5317 14.2407 19.3951 14.4557 19.3951 17.752C19.3951 21.0267 14.7012 21.2403 12.4367 21.2542L11.5978 21.2542C9.4695 21.2402 4.60519 21.0255 4.60519 17.7333C4.60519 14.4544 9.4695 14.2406 11.5978 14.2267L11.8762 14.2257C11.9194 14.2257 11.9609 14.2257 12.0007 14.2257ZM12.0007 15.8792C9.38155 15.8792 6.25867 16.2011 6.25867 17.7333C6.25867 19.2308 9.19515 19.581 11.7613 19.6008L12.0007 19.6017C14.6198 19.6017 17.7416 19.2809 17.7416 17.752C17.7416 16.2044 14.6198 15.8792 12.0007 15.8792ZM20.7681 13.7784C23.439 14.1785 24.0001 15.433 24.0001 16.4151C24.0001 17.0148 23.7642 18.1094 22.1879 18.7102C22.0909 18.7465 21.9917 18.7642 21.8936 18.7642C21.5607 18.7642 21.2465 18.5613 21.1209 18.2317C20.9577 17.8052 21.1727 17.3267 21.5993 17.1647C22.3466 16.8803 22.3466 16.5661 22.3466 16.4151C22.3466 15.9323 21.7326 15.595 20.5223 15.4142C20.0714 15.3459 19.7595 14.9259 19.8267 14.4728C19.894 14.0209 20.3128 13.7199 20.7681 13.7784ZM4.17352 14.4728C4.24076 14.9259 3.9288 15.3459 3.47795 15.4142C2.2676 15.595 1.65361 15.9323 1.65361 16.4151C1.65361 16.5661 1.65361 16.8792 2.40208 17.1647C2.82868 17.3267 3.04364 17.8052 2.88049 18.2317C2.75483 18.5613 2.44067 18.7642 2.10776 18.7642C2.00966 18.7642 1.91045 18.7465 1.81344 18.7102C0.236019 18.1083 0.00012207 17.0137 0.00012207 16.4151C0.00012207 15.4341 0.561205 14.1785 3.23324 13.7784C3.6885 13.721 4.10517 14.0209 4.17352 14.4728ZM12.0007 2.74609C14.7785 2.74609 17.0372 5.00586 17.0372 7.78261C17.0372 10.5594 14.7785 12.8191 12.0007 12.8191H11.9709C10.6261 12.8147 9.36612 12.2878 8.42253 11.3354C7.47674 10.3841 6.95975 9.12083 6.96522 7.7793C6.96522 5.00586 9.22392 2.74609 12.0007 2.74609ZM12.0007 4.39958C10.1355 4.39958 8.61872 5.91748 8.61872 7.78261C8.61544 8.68651 8.96157 9.532 9.5954 10.1702C10.2292 10.8085 11.0736 11.1623 11.9731 11.1656L12.0007 11.9924V11.1656C13.8658 11.1656 15.3837 9.64884 15.3837 7.78261C15.3837 5.91748 13.8658 4.39958 12.0007 4.39958ZM18.823 3.82582C20.7608 4.14439 22.1685 5.80228 22.1685 7.76773C22.1641 9.7464 20.6859 11.444 18.7293 11.7185C18.6907 11.724 18.6521 11.7262 18.6146 11.7262C18.209 11.7262 17.8551 11.4274 17.7967 11.0141C17.7339 10.561 18.048 10.1432 18.5011 10.0804C19.6475 9.91946 20.5128 8.92517 20.515 7.76552C20.515 6.6158 19.6905 5.64355 18.554 5.45726C18.1042 5.3834 17.7989 4.95791 17.8727 4.50705C17.9477 4.0562 18.3699 3.75417 18.823 3.82582ZM6.1286 4.50705C6.20245 4.95791 5.89711 5.3834 5.44736 5.45726C4.31087 5.64355 3.48633 6.6158 3.48633 7.76773C3.48853 8.92517 4.35386 9.92056 5.49917 10.0804C5.95223 10.1432 6.26639 10.561 6.20355 11.0141C6.14513 11.4274 5.79129 11.7262 5.38563 11.7262C5.34815 11.7262 5.30957 11.724 5.27099 11.7185C3.31437 11.444 1.83725 9.7464 1.83284 7.76993C1.83284 5.80228 3.24051 4.14439 5.17839 3.82582C5.64247 3.75307 6.05364 4.05841 6.1286 4.50705Z" fill="#444444"/>
</svg>

