<svg width="22" height="24" viewBox="0 0 22 24" fill="none"
    xmlns="http://www.w3.org/2000/svg">
    <path fill-rule="evenodd" clip-rule="evenodd" d="M15.6126 0C19.4024 0 21.9483 2.59528 21.9483 6.45746V17.5425C21.9483 21.4385 19.4808 23.9723 15.662 23.9964L6.38867 24C2.59882 24 0.0517578 21.4047 0.0517578 17.5425V6.45746C0.0517578 2.56032 2.51926 0.0277248 6.33805 0.0048217L15.6114 0H15.6126ZM15.6126 1.80814L6.34407 1.81296C3.53784 1.82983 1.85989 3.56565 1.85989 6.45746V17.5425C1.85989 20.4536 3.55352 22.1919 6.38747 22.1919L15.656 22.1882C18.4622 22.1714 20.1402 20.4331 20.1402 17.5425V6.45746C20.1402 3.54636 18.4477 1.80814 15.6126 1.80814ZM15.3801 16.2415C15.8791 16.2415 16.2841 16.6465 16.2841 17.1456C16.2841 17.6446 15.8791 18.0497 15.3801 18.0497H6.67689C6.17784 18.0497 5.77282 17.6446 5.77282 17.1456C5.77282 16.6465 6.17784 16.2415 6.67689 16.2415H15.3801ZM15.3801 11.195C15.8791 11.195 16.2841 11.6 16.2841 12.0991C16.2841 12.5981 15.8791 13.0032 15.3801 13.0032H6.67689C6.17784 13.0032 5.77282 12.5981 5.77282 12.0991C5.77282 11.6 6.17784 11.195 6.67689 11.195H15.3801ZM9.99747 6.1602C10.4965 6.1602 10.9015 6.56522 10.9015 7.06427C10.9015 7.56332 10.4965 7.96834 9.99747 7.96834H6.67653C6.17748 7.96834 5.77246 7.56332 5.77246 7.06427C5.77246 6.56522 6.17748 6.1602 6.67653 6.1602H9.99747Z" fill="#444444"/>
</svg>
