<svg width="24" height="24" viewBox="0 0 24 24" fill="none"
    xmlns="http://www.w3.org/2000/svg">
    <path fill-rule="evenodd" clip-rule="evenodd" d="M10.8373 14.545L15.3383 21.8473C15.5353 22.1673 15.843 22.1636 15.9673 22.1464C16.0916 22.1292 16.3907 22.0529 16.499 21.6898L22.1274 2.6801C22.2259 2.34409 22.045 2.11516 21.9637 2.03393C21.885 1.9527 21.6597 1.77915 21.3336 1.87146L2.31033 7.44206C1.9497 7.54791 1.87093 7.85069 1.8537 7.975C1.83647 8.10177 1.83154 8.41562 2.15032 8.61624L9.53635 13.2354L16.062 6.64081C16.4202 6.27895 17.0048 6.27526 17.3679 6.63343C17.731 6.99159 17.7335 7.57745 17.3753 7.9393L10.8373 14.545ZM15.8713 24C15.0146 24 14.2294 23.5643 13.7666 22.816L8.9948 15.073L1.17184 10.1806C0.328739 9.65258 -0.111887 8.71224 0.0247314 7.72391C0.160119 6.73558 0.83829 5.95033 1.79093 5.67094L20.8142 0.100344C21.6893 -0.155662 22.6271 0.0868052 23.2721 0.729282C23.917 1.37791 24.157 2.32563 23.8961 3.20442L18.2676 22.2129C17.9858 23.1692 17.1981 23.8449 16.2122 23.9766C16.0965 23.9914 15.9845 24 15.8713 24Z" fill="#444444"/>
</svg>
