<svg width="18" height="20" viewBox="0 0 18 20" fill="none"
    xmlns="http://www.w3.org/2000/svg">
    <path d="M8.97866 0C11.3463 0 13.4385 1.46208 14.2108 3.62787C14.2921 3.84654 14.2717 4.08508 14.1701 4.29381C14.0685 4.50253 13.8866 4.66156 13.662 4.73213C13.2048 4.89017 12.6967 4.65262 12.524 4.19541C12.0057 2.72339 10.5842 1.73939 8.99898 1.73939C6.92504 1.73939 5.24943 3.37044 5.23825 5.36726V6.70907L5.22606 6.71106H13.2312C15.5886 6.71106 17.5 8.58066 17.5 10.8866V15.8245C17.5 18.1304 15.5886 20 13.2312 20H4.76778C2.41136 20 0.5 18.1304 0.5 15.8245V10.8866C0.5 8.99016 1.80066 7.40682 3.57077 6.89792L3.46001 6.91084V5.38714C3.48033 2.41626 5.95057 0 8.97866 0ZM8.99492 11.3826C8.50717 11.3826 8.11088 11.7702 8.11088 12.2473V14.4538C8.11088 14.9409 8.50717 15.3285 8.99492 15.3285C9.49283 15.3285 9.88912 14.9409 9.88912 14.4538V12.2473C9.88912 11.7702 9.49283 11.3826 8.99492 11.3826Z" fill="#444444"/>
</svg>
