<svg width="24" height="24" viewBox="0 0 24 24" fill="none"
    xmlns="http://www.w3.org/2000/svg">
    <path d="M7.53594 0.600283C8.29193 0.623275 9.02392 0.755273 9.73312 0.996471H9.80392C9.85192 1.01927 9.88792 1.04447 9.91192 1.06727C10.1771 1.15247 10.4279 1.24847 10.6679 1.38047L11.1239 1.58446C11.3039 1.68046 11.5199 1.85926 11.6399 1.93246C11.7599 2.00326 11.8919 2.07646 11.9999 2.15926C13.3331 1.14047 14.9519 0.588475 16.6198 0.600283C17.377 0.600283 18.133 0.707274 18.8518 0.948471C23.281 2.38846 24.877 7.24841 23.5438 11.4964C22.7878 13.6671 21.5518 15.6483 19.933 17.2671C17.6158 19.5111 15.0731 21.5031 12.3359 23.219L12.0359 23.4002L11.7239 23.207C8.97713 21.5031 6.41995 19.5111 4.08118 17.2551C2.47319 15.6363 1.23601 13.6671 0.468015 11.4964C-0.887971 7.24841 0.708013 2.38846 5.18517 0.923272C5.53316 0.803273 5.89196 0.719274 6.25195 0.672474H6.39595C6.73315 0.623275 7.06795 0.600283 7.40394 0.600283H7.53594ZM18.2278 4.39244C17.7358 4.22324 17.1958 4.48843 17.0158 4.99243C16.8478 5.49642 17.1118 6.04842 17.6158 6.22722C18.385 6.51521 18.8998 7.27241 18.8998 8.1112V8.1484C18.877 8.42319 18.9598 8.68839 19.1278 8.89239C19.2958 9.09639 19.5478 9.21519 19.8118 9.24039C20.3038 9.22719 20.7238 8.83239 20.7598 8.32719V8.1844C20.7958 6.50321 19.777 4.98043 18.2278 4.39244Z" fill="#444444"/>
</svg>
