<svg width="24" height="24" viewBox="0 0 24 24" fill="none"
    xmlns="http://www.w3.org/2000/svg">
    <path d="M14.9785 18.3993C16.3179 18.1401 18.3739 18.5033 19.2344 17.4815C19.987 16.5877 19.203 12.1973 18.4504 9.87656C18.0852 8.75049 17.435 8.38936 16.9687 8.4826C15.8159 8.95725 15.6744 11.478 14.9058 13.4099C14.3666 14.7653 13.2906 15.2635 11.3786 15.305C6.48696 15.4111 9.38547 8.91708 6.68154 8.50964C5.6509 8.30874 3.96223 13.1413 4.50992 16.1712C4.68181 17.1223 5.70232 18.1871 6.97245 18.3439C7.40857 18.3977 9.29308 18.0616 9.3558 19.7081C9.3558 19.7081 9.69893 20.9705 8.75997 21.4486C7.39788 22.1421 3.94883 21.9256 2.36244 21.5427C1.45297 21.3231 -0.143403 19.3185 0.0103469 16.3995C0.309409 10.7228 2.51923 4.79612 2.51923 4.79612C2.9818 3.75146 3.0837 2.09912 6.53337 2.09912C7.70941 2.09912 9.71215 2.1144 10.2026 3.47903C10.9239 5.48607 9.95168 8.6535 11.5197 8.90433C14.3578 8.90433 10.7043 2.14618 17.0392 2.14618C18.2701 2.14618 20.0238 2.1212 20.8338 3.79262C23.2637 8.80683 24.9233 17.0953 23.4367 19.9276C22.9374 20.8789 21.8702 21.567 20.6159 21.6445C17.6977 21.8249 15.1889 21.6681 15.1889 21.6681C13.5895 20.9155 13.7693 18.7855 14.9785 18.3993Z" fill="#444444"/>
</svg>
