<svg width="24" height="24" viewBox="0 0 24 24" fill="none"
    xmlns="http://www.w3.org/2000/svg">
    <path d="M12 0C5.372 0 0 5.372 0 12C0 18.628 5.372 24 12 24C18.628 24 24 18.628 24 12C24 5.372 18.628 0 12 0ZM14.6667 2.66667C14.6667 4 14 5.33333 12.6667 5.33333C11.3333 5.33333 10.6667 6.66667 10.6667 8V12C10.6667 12 12 12 12 8C12 7.64638 12.1405 7.30724 12.3905 7.05719C12.6406 6.80714 12.9797 6.66667 13.3333 6.66667C13.687 6.66667 14.0261 6.80714 14.2761 7.05719C14.5262 7.30724 14.6667 7.64638 14.6667 8V12C14.403 12 14.1452 12.0782 13.9259 12.2247C13.7066 12.3712 13.5357 12.5795 13.4348 12.8231C13.3339 13.0667 13.3075 13.3348 13.359 13.5935C13.4104 13.8521 13.5374 14.0897 13.7239 14.2761C13.9103 14.4626 14.1479 14.5896 14.4065 14.641C14.6652 14.6925 14.9333 14.6661 15.1769 14.5652C15.4205 14.4643 15.6288 14.2934 15.7753 14.0741C15.9218 13.8548 16 13.597 16 13.3333H17.3333V10.6667L18.6667 12L17.3333 13.3333C17.3333 17.3333 17.3333 17.3333 14.6667 18.6667C14.6667 17.3333 13.3333 17.3333 10.6667 17.3333V14.6667L8 12V9.33333C6.66667 9.33333 6.66667 10.6667 6.66667 10.6667L5.91867 9.91867L2.732 6.732C2.87867 6.476 3.032 6.22267 3.19867 5.98L3.896 5.076C4.89495 3.90222 6.13707 2.95958 7.53636 2.31335C8.93566 1.66711 10.4587 1.33272 12 1.33333C12.9 1.33751 13.7959 1.45488 14.6667 1.68267V2.66667Z" fill="#444444"/>
</svg>
