<svg width="30" height="30" viewBox="0 0 30 30" fill="none"
    xmlns="http://www.w3.org/2000/svg">
    <path fill-rule="evenodd" clip-rule="evenodd" d="M12.9053 25.1325C13.5528 25.8538 14.384 26.25 15.2465 26.25H15.2478C16.114 26.25 16.949 25.8538 17.5978 25.1312C17.9453 24.7475 18.5378 24.7162 18.9215 25.0625C19.3065 25.4087 19.3378 26.0025 18.9915 26.3862C17.9815 27.5075 16.6528 28.125 15.2478 28.125H15.2453C13.844 28.1238 12.5178 27.5063 11.5115 26.385C11.1653 26.0012 11.1965 25.4075 11.5815 25.0625C11.9665 24.715 12.559 24.7463 12.9053 25.1325ZM15.3088 1.25C20.865 1.25 24.5975 5.5775 24.5975 9.61875C24.5975 11.6975 25.1263 12.5787 25.6875 13.5138C26.2425 14.4362 26.8713 15.4837 26.8713 17.4637C26.435 22.5225 21.1538 22.935 15.3088 22.935C9.46378 22.935 4.18128 22.5225 3.75002 17.5438C3.74628 15.4837 4.37503 14.4362 4.93003 13.5138L5.12596 13.1839C5.60838 12.3548 6.02003 11.4529 6.02003 9.61875C6.02003 5.5775 9.75253 1.25 15.3088 1.25ZM15.3088 3.125C10.94 3.125 7.89503 6.5475 7.89503 9.61875C7.89503 12.2175 7.17378 13.4187 6.53628 14.4788C6.02503 15.33 5.62128 16.0025 5.62128 17.4637C5.83003 19.8212 7.38628 21.06 15.3088 21.06C23.1875 21.06 24.7925 19.7663 25 17.3825C24.9963 16.0025 24.5925 15.33 24.0813 14.4788C23.4438 13.4187 22.7225 12.2175 22.7225 9.61875C22.7225 6.5475 19.6775 3.125 15.3088 3.125Z" fill="#57565C"/>
</svg>
