<svg width="24" height="24" viewBox="0 0 24 24" fill="none"
    xmlns="http://www.w3.org/2000/svg">
    <path d="M22.4473 19.5859C21.8785 18.2387 21.0531 17.015 20.0171 15.9829C18.9842 14.9479 17.7607 14.1226 16.4141 13.5528C16.402 13.5467 16.39 13.5437 16.3779 13.5377C18.2563 12.1809 19.4774 9.97085 19.4774 7.47739C19.4774 3.34673 16.1307 0 12 0C7.86937 0 4.52264 3.34673 4.52264 7.47739C4.52264 9.97085 5.74375 12.1809 7.62214 13.5407C7.61008 13.5467 7.59802 13.5497 7.58596 13.5558C6.2352 14.1256 5.02314 14.9427 3.98294 15.9859C2.9479 17.0188 2.12265 18.2423 1.55279 19.5889C0.992959 20.9073 0.691029 22.3207 0.663344 23.7528C0.66254 23.7849 0.668184 23.817 0.679945 23.8469C0.691706 23.8769 0.709345 23.9042 0.731824 23.9272C0.754303 23.9503 0.781166 23.9686 0.81083 23.9811C0.840495 23.9936 0.872361 24 0.90455 24H2.7136C2.84626 24 2.95179 23.8945 2.9548 23.7648C3.0151 21.4372 3.94978 19.2573 5.60204 17.605C7.31159 15.8955 9.58194 14.9548 12 14.9548C14.4181 14.9548 16.6885 15.8955 18.398 17.605C20.0503 19.2573 20.985 21.4372 21.0453 23.7648C21.0483 23.8975 21.1538 24 21.2865 24H23.0955C23.1277 24 23.1596 23.9936 23.1892 23.9811C23.2189 23.9686 23.2458 23.9503 23.2682 23.9272C23.2907 23.9042 23.3083 23.8769 23.3201 23.8469C23.3319 23.817 23.3375 23.7849 23.3367 23.7528C23.3066 22.3116 23.0081 20.9095 22.4473 19.5859V19.5859ZM12 12.6633C10.6161 12.6633 9.3136 12.1236 8.3337 11.1437C7.3538 10.1638 6.8141 8.86131 6.8141 7.47739C6.8141 6.09347 7.3538 4.79095 8.3337 3.81106C9.3136 2.83116 10.6161 2.29146 12 2.29146C13.3839 2.29146 14.6865 2.83116 15.6664 3.81106C16.6463 4.79095 17.186 6.09347 17.186 7.47739C17.186 8.86131 16.6463 10.1638 15.6664 11.1437C14.6865 12.1236 13.3839 12.6633 12 12.6633Z" fill="#444444"/>
</svg>

