<svg width="22" height="22" viewBox="0 0 22 22" fill="none"
    xmlns="http://www.w3.org/2000/svg">
    <path d="M11 8.17143C13.2529 8.17143 15.0857 6.3385 15.0857 4.08571C15.0857 1.83292 13.2529 0 11 0C8.74706 0 6.91429 1.83292 6.91429 4.08571C6.91429 6.3385 8.74706 8.17143 11 8.17143ZM11 0.628571C12.9063 0.628571 14.4571 2.17944 14.4571 4.08571C14.4571 5.99199 12.9063 7.54286 11 7.54286C9.09372 7.54286 7.54286 5.99199 7.54286 4.08571C7.54286 2.17944 9.09372 0.628571 11 0.628571ZM21.0571 18.2083C21.0571 17.7541 20.9347 17.3072 20.7031 16.9165L16.8976 10.4948C16.2781 9.44944 15.1385 8.8 13.9234 8.8H8.07659C6.8615 8.8 5.7219 9.44944 5.10239 10.4948L1.29689 16.9165C1.06532 17.3072 0.942857 17.7541 0.942857 18.2083C0.942857 18.9682 1.28072 19.6493 1.81217 20.1143H0V22H22V20.1143H20.1878C20.7193 19.6493 21.0571 18.9682 21.0571 18.2083ZM1.57143 18.2083C1.57143 17.8667 1.6635 17.5306 1.83768 17.2369L5.64318 10.8152C6.15006 9.95985 7.08248 9.42857 8.07659 9.42857H13.9234C14.9175 9.42857 15.8499 9.95985 16.3568 10.8152L20.1623 17.2369C20.3365 17.5306 20.4286 17.8667 20.4286 18.2083C20.4286 19.2592 19.5736 20.1143 18.5228 20.1143H16.9135C16.9487 20.0155 16.9714 19.9107 16.9714 19.8C16.9714 19.3908 16.7079 19.0452 16.3429 18.9151V18.5429H18.5429C18.657 18.5429 18.7622 18.4809 18.8176 18.3811C18.8731 18.2814 18.87 18.1592 18.8096 18.0625L16.3429 14.1017V12.2571H5.65714V14.1017L3.19043 18.0625C3.12997 18.1592 3.1269 18.2814 3.18245 18.3811C3.23785 18.4809 3.34297 18.5429 3.45714 18.5429H5.65714V18.9151C5.2921 19.0452 5.02857 19.3908 5.02857 19.8C5.02857 19.9107 5.05128 20.0155 5.0865 20.1143H3.47725C2.42635 20.1143 1.57143 19.2592 1.57143 18.2083ZM5.65714 19.8C5.65714 19.6266 5.79817 19.4857 5.97143 19.4857H16.0286C16.2018 19.4857 16.3429 19.6266 16.3429 19.8C16.3429 19.9734 16.2018 20.1143 16.0286 20.1143H14.1429H9.24519H5.97143C5.79817 20.1143 5.65714 19.9734 5.65714 19.8ZM16.3429 15.2904L17.9769 17.9143H16.3429V15.2904ZM15.7143 18.8571H6.28571V12.8857H15.7143V18.8571ZM5.65714 17.9143H4.0231L5.65714 15.2904V17.9143ZM21.3714 20.7429V21.3714H0.628571V20.7429H3.47725H5.97143H9.24519H14.1429H16.0286H18.5228H21.3714Z" fill="black"/>
</svg>
