<svg width="24" height="24" viewBox="0 0 24 24" fill="none"
    xmlns="http://www.w3.org/2000/svg">
    <path d="M17.0292 0C20.736 0 22.8 2.136 22.8 5.796V18.192C22.8 21.912 20.736 24 17.0292 24H6.97201C3.32401 24 1.20001 21.912 1.20001 18.192V5.796C1.20001 2.136 3.32401 0 6.97201 0H17.0292ZM7.29601 16.488C6.93601 16.452 6.58801 16.62 6.39601 16.932C6.20401 17.232 6.20401 17.628 6.39601 17.94C6.58801 18.24 6.93601 18.42 7.29601 18.372H16.704C17.1828 18.324 17.544 17.9148 17.544 17.436C17.544 16.944 17.1828 16.536 16.704 16.488H7.29601ZM16.704 11.0148H7.29601C6.77881 11.0148 6.36001 11.436 6.36001 11.952C6.36001 12.468 6.77881 12.888 7.29601 12.888H16.704C17.22 12.888 17.64 12.468 17.64 11.952C17.64 11.436 17.22 11.0148 16.704 11.0148ZM10.8828 5.58H7.29601V5.592C6.77881 5.592 6.36001 6.012 6.36001 6.528C6.36001 7.044 6.77881 7.464 7.29601 7.464H10.8828C11.4 7.464 11.82 7.044 11.82 6.5148C11.82 6 11.4 5.58 10.8828 5.58Z" fill="#444444"/>
</svg>
