<svg width="24" height="24" viewBox="0 0 24 24" fill="none" xmlns="http://www.w3.org/2000/svg">
<path d="M18.3009 4.46981C18.2133 4.47 18.1272 4.44928 18.0516 4.40981C15.9713 3.41981 14.1727 2.99981 12.0164 2.99981C9.87094 2.99981 7.83376 3.46981 5.98079 4.40981C5.71876 4.54147 5.39579 4.44981 5.24391 4.20814C5.17612 4.0915 5.16083 3.95629 5.20114 3.82999C5.24145 3.70369 5.33434 3.59576 5.46094 3.52814C7.4594 2.52063 9.71892 1.99385 12.0164 1.99981C14.3241 1.99981 16.3397 2.46981 18.5503 3.51981C18.6793 3.58284 18.7753 3.6883 18.8178 3.81356C18.8603 3.93882 18.8459 4.07389 18.7777 4.18981C18.7366 4.2721 18.6699 4.34222 18.5854 4.39184C18.5009 4.44147 18.4022 4.46853 18.3009 4.46981ZM2.79516 9.71981C2.68258 9.7191 2.57295 9.68768 2.4811 9.62981C2.3616 9.55086 2.28123 9.43377 2.25692 9.3032C2.23261 9.17262 2.26626 9.03876 2.35079 8.92981C3.42376 7.52981 4.78829 6.42981 6.41438 5.65981C9.81657 4.04147 14.1727 4.02981 17.5856 5.64981C19.2113 6.41981 20.5763 7.50981 21.6492 8.89981C21.7334 9.00886 21.7668 9.14264 21.7426 9.27312C21.7183 9.4036 21.6381 9.52067 21.5189 9.59981C21.4611 9.63823 21.395 9.6657 21.3247 9.68051C21.2545 9.69532 21.1815 9.69716 21.1104 9.68591C21.0393 9.67466 20.9716 9.65057 20.9114 9.61512C20.8512 9.57966 20.7998 9.53361 20.7605 9.47981C19.7855 8.21981 18.5503 7.22981 17.0873 6.53981C13.9777 5.06981 10.0008 5.06981 6.90188 6.54981C5.42813 7.24981 4.19298 8.24981 3.21798 9.50814C3.17593 9.57435 3.11431 9.62908 3.03978 9.66639C2.96525 9.7037 2.88066 9.72217 2.79516 9.71981ZM9.56719 21.7915C9.49558 21.7921 9.42466 21.779 9.35923 21.7531C9.29381 21.7272 9.2354 21.6892 9.18798 21.6415C8.24532 20.7698 7.73438 20.2081 7.01016 18.9998C6.26016 17.7698 5.87251 16.2698 5.87251 14.6598C5.87251 11.6898 8.62454 9.26981 12.0056 9.26981C15.3867 9.26981 18.1406 11.6898 18.1406 14.6598C18.1428 14.7242 18.1303 14.7884 18.1041 14.8484C18.0778 14.9085 18.0383 14.9633 17.9877 15.0095C17.9372 15.0558 17.8768 15.0925 17.81 15.1176C17.7433 15.1427 17.6715 15.1556 17.599 15.1556C17.5265 15.1556 17.4547 15.1427 17.3879 15.1176C17.3212 15.0925 17.2607 15.0558 17.2102 15.0095C17.1597 14.9633 17.1202 14.9085 17.0939 14.8484C17.0677 14.7884 17.0552 14.7242 17.0574 14.6598C17.0574 12.2398 14.7924 10.2698 12.008 10.2698C9.2236 10.2698 6.95626 12.2398 6.95626 14.6598C6.95626 16.0998 7.30266 17.4298 7.9636 18.5098C8.65735 19.6598 9.13548 20.1498 9.96844 20.9298C10.0672 21.0269 10.1219 21.1531 10.1219 21.284C10.1219 21.4149 10.0672 21.5411 9.96844 21.6381C9.86209 21.7335 9.71824 21.7885 9.56719 21.7915ZM17.3367 19.9415C16.0472 19.9415 14.9095 19.6415 13.9777 19.0515C13.1837 18.5568 12.5351 17.8998 12.0865 17.1359C11.6378 16.3719 11.4022 15.5233 11.3995 14.6615C11.3965 14.5965 11.4083 14.5317 11.4341 14.4709C11.46 14.4101 11.4994 14.3546 11.55 14.3077C11.6006 14.2608 11.6614 14.2235 11.7287 14.198C11.7959 14.1725 11.8683 14.1594 11.9414 14.1594C12.0145 14.1594 12.0869 14.1725 12.1542 14.198C12.2214 14.2235 12.2822 14.2608 12.3328 14.3077C12.3834 14.3546 12.4228 14.4101 12.4487 14.4709C12.4746 14.5317 12.4863 14.5965 12.4833 14.6615C12.4851 15.3615 12.6772 16.0507 13.0431 16.6706C13.4091 17.2904 13.9381 17.8225 14.5852 18.2215C15.3544 18.7015 16.2539 18.9298 17.3377 18.9298C17.7151 18.9238 18.0914 18.8904 18.4627 18.8298C18.7552 18.7798 19.0369 18.9598 19.0908 19.2398C19.1183 19.369 19.0869 19.5027 19.0037 19.6114C18.9205 19.7201 18.7922 19.7951 18.6469 19.8198C18.2153 19.8956 17.7767 19.9358 17.3367 19.9398V19.9415ZM15.1584 21.9998C15.1109 21.998 15.0637 21.9913 15.0178 21.9798C13.2947 21.5398 12.1678 20.9498 10.9866 19.8798C9.46923 18.4898 8.63532 16.6398 8.63532 14.6598C8.63532 13.0398 10.1306 11.7198 11.9724 11.7198C13.8141 11.7198 15.3098 13.0398 15.3098 14.6598C15.3098 15.7298 16.3177 16.5998 17.5636 16.5998C18.8095 16.5998 19.8174 15.7298 19.8174 14.6598C19.8174 10.8898 16.2956 7.82981 11.9616 7.82981C8.88423 7.82981 6.06704 9.40981 4.79954 11.8598C4.37766 12.6698 4.16016 13.6198 4.16016 14.6598C4.16016 15.4398 4.23563 16.6698 4.88579 18.2698C4.99454 18.5298 4.85344 18.8198 4.57173 18.9098C4.50477 18.9325 4.43336 18.9429 4.36177 18.9404C4.29019 18.9379 4.2199 18.9226 4.15515 18.8953C4.09039 18.8681 4.0325 18.8295 3.98495 18.7818C3.9374 18.7342 3.90117 18.6785 3.87844 18.6181C3.35563 17.3501 3.0878 16.0103 3.08719 14.6598C3.08719 13.4598 3.33657 12.3681 3.82407 11.4198C5.26548 8.62814 8.46188 6.81981 11.9616 6.81981C16.8919 6.81981 20.9011 10.3298 20.9011 14.6498C20.9011 16.2698 19.4058 17.5898 17.5636 17.5898C15.7214 17.5898 14.2261 16.2698 14.2261 14.6498C14.2266 13.5798 13.2188 12.7081 11.9728 12.7081C10.7269 12.7081 9.71907 13.5781 9.71907 14.6481C9.71907 16.3565 10.4344 17.9581 11.7455 19.1581C12.7767 20.0981 13.7611 20.6165 15.2888 21.0081C15.5813 21.0781 15.7439 21.3581 15.668 21.6181C15.6443 21.7237 15.581 21.8189 15.4884 21.8883C15.3958 21.9576 15.2795 21.997 15.1584 21.9998Z" fill="#444444"/>
</svg>
