<svg width="28" height="28" viewBox="0 0 28 28" fill="none"
    xmlns="http://www.w3.org/2000/svg">
    <path d="M17.472 13.9708C18.1673 14.679 18.557 15.5248 18.8346 16.6822L18.9688 17.3005L19.0808 17.8943C19.2255 18.6725 19.3118 19.0283 19.4401 19.3118C19.7726 20.0538 20.3665 20.8215 21.231 21.6102C21.7058 22.0418 21.7385 22.7745 21.3021 23.2458C21.0922 23.4725 20.8012 23.6071 20.4925 23.6205C20.1838 23.6338 19.8824 23.5247 19.6536 23.317C18.5686 22.3288 17.7823 21.3115 17.3086 20.2568C17.1255 19.8485 17.0146 19.467 16.8875 18.8382L16.667 17.6832L16.6261 17.4883C16.4266 16.5527 16.1851 15.9798 15.8013 15.5902C15.1025 14.8785 13.4073 15.0768 12.9943 15.7267C12.3865 16.681 12.2266 18.3412 12.7236 20.0258C13.1203 21.3687 13.6476 22.6917 14.3045 23.9925C14.3731 24.1286 14.4141 24.2769 14.4251 24.4289C14.4361 24.5809 14.4169 24.7336 14.3687 24.8782C14.3204 25.0227 14.244 25.1563 14.1439 25.2712C14.0438 25.3861 13.9219 25.4801 13.7853 25.5477C13.5091 25.6856 13.1895 25.7089 12.8963 25.6123C12.603 25.5157 12.3598 25.3071 12.2196 25.032C11.5113 23.6363 10.9307 22.1794 10.4848 20.6792C9.80814 18.3878 10.0333 16.0405 11.0215 14.4888C12.2348 12.5872 15.7115 12.18 17.472 13.9708ZM14.5518 16.45C14.8609 16.4399 15.1613 16.553 15.3871 16.7643C15.6128 16.9756 15.7455 17.2679 15.7558 17.577C15.8144 19.3225 16.3822 21.0127 17.3891 22.4396L17.6108 22.7418L17.9608 23.1968C18.1427 23.432 18.228 23.7277 18.1992 24.0236C18.1704 24.3195 18.0297 24.5933 17.8059 24.789C17.582 24.9846 17.292 25.0875 16.9949 25.0765C16.6978 25.0655 16.4161 24.9415 16.2073 24.7298L16.1116 24.619L15.7616 24.164C14.3207 22.292 13.5034 20.015 13.4248 17.654C13.4147 17.3449 13.5278 17.0445 13.7391 16.8187C13.9504 16.593 14.2427 16.4603 14.5518 16.45ZM10.0018 10.7193C12.5696 8.81765 15.9238 8.92149 18.1883 10.3763C19.3095 11.0973 20.1635 11.9432 20.7351 12.9173C20.8916 13.1843 20.9355 13.5026 20.8573 13.802C20.779 14.1014 20.5851 14.3575 20.3181 14.5139C20.051 14.6703 19.7328 14.7142 19.4334 14.636C19.134 14.5578 18.8779 14.3638 18.7215 14.0968C18.3481 13.4587 17.7543 12.8718 16.926 12.3398C15.4326 11.3797 13.1273 11.3085 11.3901 12.5953C9.57014 13.9417 8.80014 16.2657 9.02997 18.7285C9.16181 20.1227 9.58181 21.5355 10.2993 22.9693C10.4296 23.2449 10.4468 23.5606 10.3473 23.8488C10.2477 24.1369 10.0394 24.3747 9.76676 24.5112C9.49414 24.6476 9.17893 24.6719 8.8886 24.5789C8.59827 24.4859 8.35588 24.283 8.21331 24.0135C7.36981 22.3277 6.86581 20.6372 6.70831 18.9467C6.40614 15.7383 7.44447 12.6128 10.0018 10.7193ZM22.337 16.7393C22.372 17.3927 22.5295 17.9177 22.8048 18.3342C23.0638 18.7273 23.2703 18.9128 23.3741 18.9443C23.5208 18.9887 23.6574 19.0615 23.7759 19.1586C23.8945 19.2557 23.9927 19.3752 24.0651 19.5103C24.1375 19.6454 24.1825 19.7934 24.1977 19.946C24.2129 20.0985 24.1978 20.2525 24.1535 20.3992C24.1091 20.5459 24.0363 20.6824 23.9392 20.8009C23.8421 20.9195 23.7226 21.0178 23.5875 21.0901C23.4524 21.1625 23.3043 21.2075 23.1518 21.2227C22.9993 21.2379 22.8453 21.2228 22.6986 21.1785C21.9846 20.9615 21.3873 20.4248 20.8565 19.6187C20.342 18.837 20.062 17.9107 20.0071 16.8583C19.9963 16.7037 20.0163 16.5484 20.0662 16.4016C20.116 16.2548 20.1946 16.1194 20.2974 16.0033C20.4001 15.8872 20.525 15.7928 20.6647 15.7255C20.8043 15.6582 20.956 15.6194 21.1108 15.6115C21.2657 15.6035 21.4205 15.6264 21.5664 15.679C21.7123 15.7315 21.8462 15.8126 21.9603 15.9175C22.0745 16.0224 22.1666 16.149 22.2313 16.2899C22.2959 16.4308 22.3319 16.5832 22.337 16.7382V16.7393ZM12.2103 6.94515C12.3371 7.22735 12.3467 7.54836 12.2369 7.8376C12.127 8.12684 11.9068 8.36061 11.6246 8.48749C9.53164 9.43015 7.99864 10.766 6.99297 12.5078C5.72947 14.6942 5.38764 17.2608 5.67114 19.418C5.69193 19.5703 5.68241 19.7252 5.64313 19.8738C5.60385 20.0225 5.53559 20.1619 5.44226 20.284C5.34893 20.4062 5.23239 20.5087 5.09932 20.5856C4.96625 20.6626 4.81928 20.7125 4.66686 20.7325C4.51444 20.7525 4.35957 20.7422 4.21115 20.7021C4.06274 20.662 3.92371 20.593 3.80204 20.4991C3.68038 20.4051 3.57849 20.288 3.50222 20.1545C3.42596 20.0211 3.37682 19.8738 3.35764 19.7213C3.01347 17.0952 3.42181 14.0245 4.97231 11.3412C6.23114 9.16182 8.13981 7.49699 10.6656 6.35949C10.8054 6.2965 10.9563 6.26169 11.1095 6.25704C11.2628 6.25239 11.4154 6.27799 11.5588 6.33239C11.7021 6.38678 11.8334 6.46889 11.945 6.57404C12.0565 6.67918 12.1463 6.80529 12.2091 6.94515H12.2103ZM15.0838 5.74115C17.2946 5.78665 19.4821 6.79699 21.6405 8.71615C23.821 10.6563 25.1346 13.293 25.578 16.5713C25.5985 16.7231 25.5889 16.8775 25.5498 17.0257C25.5107 17.1738 25.4427 17.3128 25.3499 17.4346C25.1624 17.6808 24.8848 17.8424 24.5781 17.8838C24.2715 17.9253 23.961 17.8432 23.7148 17.6557C23.4687 17.4682 23.3071 17.1906 23.2656 16.884C22.8935 14.1377 21.8353 12.0132 20.0888 10.4592C18.3178 8.88415 16.6355 8.10715 15.0348 8.07449C14.8816 8.07135 14.7305 8.03806 14.5902 7.97653C14.4498 7.91499 14.323 7.82642 14.2169 7.71587C14.1107 7.60531 14.0274 7.47494 13.9717 7.33219C13.916 7.18944 13.8889 7.03711 13.8921 6.8839C13.8952 6.73069 13.9285 6.5796 13.99 6.43926C14.0515 6.29891 14.1401 6.17206 14.2507 6.06595C14.3612 5.95984 14.4916 5.87654 14.6344 5.82081C14.7771 5.76508 14.9294 5.73801 15.0826 5.74115H15.0838ZM6.54614 6.00949C6.64804 6.12392 6.7264 6.25732 6.77674 6.40204C6.82708 6.54677 6.84842 6.7 6.83954 6.85297C6.83065 7.00594 6.79172 7.15567 6.72497 7.29359C6.65821 7.43152 6.56494 7.55495 6.45047 7.65682C6.14714 7.92749 5.82631 8.25182 5.49147 8.62982C5.12925 9.05332 4.80996 9.51174 4.53831 9.99832C4.3825 10.2641 4.12789 10.4575 3.83004 10.5362C3.5322 10.6149 3.2153 10.5727 2.9485 10.4186C2.68169 10.2646 2.48665 10.0113 2.40593 9.71396C2.32521 9.41665 2.36537 9.09947 2.51764 8.83165C2.86722 8.20876 3.27839 7.62249 3.74497 7.08165C4.13931 6.63832 4.52314 6.24865 4.89881 5.91499C5.01317 5.81301 5.1465 5.73457 5.29119 5.68413C5.43587 5.63369 5.58907 5.61225 5.74205 5.62103C5.89502 5.6298 6.04476 5.66862 6.18273 5.73528C6.3207 5.80193 6.44419 5.89511 6.54614 6.00949ZM14.5786 2.35315C17.1943 2.47565 19.6198 3.04732 21.4211 4.43799C21.5457 4.53044 21.6506 4.64681 21.7297 4.7803C21.8087 4.91378 21.8604 5.06169 21.8816 5.21537C21.9028 5.36905 21.8931 5.52542 21.8532 5.67533C21.8132 5.82524 21.7438 5.96567 21.6489 6.08841C21.554 6.21115 21.4356 6.31373 21.3006 6.39015C21.1656 6.46657 21.0167 6.5153 20.8626 6.53348C20.7085 6.55166 20.5524 6.53893 20.4033 6.49603C20.2542 6.45314 20.1152 6.38093 19.9943 6.28365C18.5908 5.20099 16.6261 4.78449 14.4701 4.68415C12.3048 4.58265 10.5431 4.96649 9.15947 5.81582C8.89615 5.96895 8.58338 6.01302 8.288 5.93861C7.99262 5.86421 7.73806 5.67723 7.5787 5.41763C7.41934 5.15803 7.36784 4.8464 7.43519 4.54933C7.50254 4.25226 7.68341 3.99331 7.93914 3.82782C9.74981 2.71599 11.9723 2.23065 14.5786 2.35315Z" fill="#444444"/>
</svg>
